<svg width="9" height="10" viewBox="0 0 9 10" fill="none" xmlns="http://www.w3.org/2000/svg">
<path d="M2.99244 9.17118C2.62494 9.17118 2.28078 9.08368 1.97744 8.90868C1.25995 8.49458 0.863281 7.66037 0.863281 6.5637V3.44287C0.863281 2.3462 1.25995 1.51204 1.97744 1.09787C2.69494 0.683704 3.61078 0.759544 4.56744 1.30787L7.26829 2.86537C8.21909 3.4137 8.7441 4.17204 8.7441 5.00037C8.7441 5.8287 8.21909 6.58704 7.26829 7.13537L4.56744 8.69288C4.01911 9.01368 3.48244 9.17118 2.99244 9.17118ZM2.99244 1.71037C2.77661 1.71037 2.57828 1.75704 2.40911 1.8562C1.97744 2.10704 1.73828 2.66704 1.73828 3.44287V6.55787C1.73828 7.32787 1.97744 7.8937 2.41494 8.14458C2.85244 8.39538 3.45911 8.31958 4.12994 7.93454L6.83079 6.37704C7.5016 5.99204 7.8691 5.50204 7.8691 5.00037C7.8691 4.4987 7.5016 4.0087 6.83079 3.6237L4.12994 2.0662C3.71578 1.82704 3.33078 1.71037 2.99244 1.71037Z" fill="#BAD3C1"/>
</svg>
